<?xml version="1.0" encoding="UTF-8"?>
<!-- e-Government Web3 Platform Favicon (SVG)
     A minimal government building (pillars + pediment) over a hex chain ring
     Colors chosen for clarity at small sizes. -->
<svg xmlns="http://www.w3.org/2000/svg" viewBox="0 0 64 64" role="img" aria-label="e-Government">
  <defs>
    <linearGradient id="g" x1="0" x2="1" y1="0" y2="1">
      <stop offset="0%" stop-color="#2563eb"/>
      <stop offset="60%" stop-color="#4f46e5"/>
      <stop offset="100%" stop-color="#9333ea"/>
    </linearGradient>
  </defs>
  <!-- Outer chain-like hex ring -->
  <path d="M32 4 54 16v32L32 60 10 48V16Z" fill="none" stroke="url(#g)" stroke-width="5" stroke-linejoin="round"/>
  <!-- Building base (pediment + pillars) -->
  <path d="M18 30h28v14a2 2 0 0 1-2 2H20a2 2 0 0 1-2-2V30Z" fill="#ffffff" fill-opacity="0.9" stroke="#1e3a8a" stroke-width="2"/>
  <path d="M16 26 32 18 48 26v4H16z" fill="#1e3a8a"/>
  <!-- Pillars -->
  <g stroke="#1e3a8a" stroke-width="2" stroke-linecap="round">
    <line x1="22" y1="30" x2="22" y2="44"/>
    <line x1="28" y1="30" x2="28" y2="44"/>
    <line x1="34" y1="30" x2="34" y2="44"/>
    <line x1="40" y1="30" x2="40" y2="44"/>
  </g>
  <!-- Small blockchain nodes -->
  <circle cx="32" cy="12" r="3" fill="#ffffff" stroke="#2563eb" stroke-width="2"/>
  <circle cx="14" cy="24" r="2.5" fill="#ffffff" stroke="#4f46e5" stroke-width="2"/>
  <circle cx="50" cy="24" r="2.5" fill="#ffffff" stroke="#4f46e5" stroke-width="2"/>
  <circle cx="14" cy="40" r="2.5" fill="#ffffff" stroke="#9333ea" stroke-width="2"/>
  <circle cx="50" cy="40" r="2.5" fill="#ffffff" stroke="#9333ea" stroke-width="2"/>
</svg>

